<svg width="548" height="548" viewBox="0 0 548 548" fill="none" xmlns="http://www.w3.org/2000/svg">
<g clip-path="url(#clip0_257_300)">
<rect width="548" height="548" rx="137" fill="url(#paint0_linear_257_300)"/>
<path d="M0 204.587C0 132.975 0 97.1686 13.9366 69.8164C26.1956 45.7568 45.7568 26.1956 69.8164 13.9366C97.1686 0 132.975 0 204.587 0H343.413C415.025 0 450.831 0 478.184 13.9366C502.243 26.1956 521.804 45.7568 534.063 69.8164C548 97.1686 548 132.975 548 204.587V343.413C548 415.025 548 450.831 534.063 478.184C521.804 502.243 502.243 521.804 478.184 534.063C450.831 548 415.025 548 343.413 548H204.587C132.975 548 97.1686 548 69.8164 534.063C45.7568 521.804 26.1956 502.243 13.9366 478.184C0 450.831 0 415.025 0 343.413V204.587Z" fill="url(#paint1_linear_257_300)"/>
<g filter="url(#filter0_d_257_300)">
<path fill-rule="evenodd" clip-rule="evenodd" d="M126.727 139.818C126.727 135.236 126.727 132.945 125.836 131.195C125.051 129.655 123.799 128.403 122.26 127.619C120.51 126.727 118.219 126.727 113.636 126.727H107.091C102.509 126.727 100.218 126.727 98.4674 125.836C96.9278 125.051 95.6762 123.799 94.8918 122.26C94 120.51 94 118.219 94 113.636V107.091C94 102.509 94 100.218 94.8918 98.4674C95.6762 96.9278 96.9278 95.6762 98.4674 94.8918C100.218 94 102.509 94 107.091 94H440.909C445.491 94 447.782 94 449.533 94.8918C451.072 95.6762 452.324 96.9278 453.108 98.4674C454 100.218 454 102.509 454 107.091V113.636C454 118.219 454 120.51 453.108 122.26C452.324 123.799 451.072 125.051 449.533 125.836C447.782 126.727 445.491 126.727 440.909 126.727H172.545C167.963 126.727 165.672 126.727 163.922 127.619C162.382 128.403 161.131 129.655 160.346 131.195C159.455 132.945 159.455 135.236 159.455 139.818V319.75C159.455 329.18 159.467 335.269 159.846 339.904C160.209 344.347 160.825 345.995 161.237 346.804C162.805 349.882 165.307 352.385 168.384 353.954C169.193 354.367 170.841 354.984 175.284 355.349C179.918 355.73 186.007 355.745 195.437 355.75L287.074 355.793C296.512 355.798 302.607 355.788 307.245 355.411C311.693 355.05 313.342 354.434 314.151 354.022C317.232 352.453 319.737 349.95 321.306 346.87C321.719 346.061 322.336 344.412 322.699 339.965C323.078 335.326 323.091 329.232 323.091 319.793V273.907C323.091 264.859 315.732 257.518 306.669 257.543C297.655 257.569 290.364 264.885 290.364 273.884C290.364 301.072 268.248 323.066 241.075 322.95C214.045 322.835 192.182 300.89 192.182 273.86L192.182 227.551C192.182 218.925 192.181 211.483 192.682 205.354C193.211 198.885 194.378 192.45 197.532 186.259C202.239 177.022 209.749 169.512 218.986 164.805C225.178 161.65 231.612 160.483 238.081 159.955C244.211 159.454 251.652 159.454 260.278 159.455H353.176C361.802 159.454 369.244 159.454 375.373 159.955C381.842 160.483 388.277 161.65 394.469 164.805C403.706 169.512 411.216 177.022 415.922 186.259C419.077 192.45 420.244 198.885 420.772 205.354C421.273 211.483 421.273 218.925 421.273 227.551V408.182C421.273 412.764 421.273 415.055 422.164 416.805C422.949 418.345 424.201 419.597 425.74 420.381C427.49 421.273 429.781 421.273 434.364 421.273H440.909C445.491 421.273 447.782 421.273 449.533 422.164C451.072 422.949 452.324 424.201 453.108 425.74C454 427.49 454 429.781 454 434.364V440.909C454 445.491 454 447.782 453.108 449.533C452.324 451.072 451.072 452.324 449.533 453.108C447.782 454 445.491 454 440.909 454H107.091C102.509 454 100.218 454 98.4674 453.108C96.9278 452.324 95.6762 451.072 94.8918 449.533C94 447.782 94 445.491 94 440.909V434.364C94 429.781 94 427.49 94.8918 425.74C95.6762 424.201 96.9278 422.949 98.4674 422.164C100.218 421.273 102.509 421.273 107.091 421.273H375.455C380.037 421.273 382.328 421.273 384.078 420.381C385.618 419.597 386.869 418.345 387.654 416.805C388.545 415.055 388.545 412.764 388.545 408.182V228.182C388.545 218.747 388.533 212.656 388.154 208.019C387.791 203.574 387.174 201.926 386.762 201.117C385.193 198.037 382.69 195.534 379.611 193.965C378.802 193.553 377.154 192.937 372.708 192.573C368.072 192.195 361.98 192.182 352.545 192.182H260.909C251.475 192.182 245.383 192.195 240.746 192.573C236.301 192.937 234.653 193.553 233.844 193.965C230.765 195.534 228.261 198.037 226.693 201.117C226.28 201.926 225.664 203.574 225.301 208.019C224.922 212.656 224.909 218.747 224.909 228.182V273.86C224.909 282.868 232.189 290.181 241.196 290.223L241.215 290.223C250.274 290.262 257.636 282.927 257.636 273.884C257.636 246.831 279.539 224.893 306.576 224.816C333.735 224.739 355.818 246.733 355.818 273.907V320.424C355.818 329.054 355.819 336.499 355.318 342.63C354.789 349.102 353.621 355.539 350.464 361.732C345.755 370.971 338.241 378.482 329 383.187C322.805 386.341 316.367 387.505 309.896 388.031C303.763 388.529 296.318 388.525 287.688 388.521L194.792 388.477C186.169 388.473 178.731 388.47 172.604 387.966C166.137 387.435 159.705 386.266 153.517 383.11C144.284 378.402 136.778 370.892 132.075 361.657C128.922 355.467 127.755 349.035 127.227 342.568C126.727 336.441 126.727 329.003 126.727 320.38L126.727 139.818Z" fill="url(#paint2_linear_257_300)" fill-opacity="0.639216" shape-rendering="crispEdges"/>
</g>
</g>
<defs>
<filter id="filter0_d_257_300" x="79" y="87" width="390" height="390" filterUnits="userSpaceOnUse" color-interpolation-filters="sRGB">
<feFlood flood-opacity="0" result="BackgroundImageFix"/>
<feColorMatrix in="SourceAlpha" type="matrix" values="0 0 0 0 0 0 0 0 0 0 0 0 0 0 0 0 0 0 127 0" result="hardAlpha"/>
<feOffset dy="8"/>
<feGaussianBlur stdDeviation="7.5"/>
<feComposite in2="hardAlpha" operator="out"/>
<feColorMatrix type="matrix" values="0 0 0 0 0.0545944 0 0 0 0 0.00365975 0 0 0 0 0.258333 0 0 0 0.15 0"/>
<feBlend mode="normal" in2="BackgroundImageFix" result="effect1_dropShadow_257_300"/>
<feBlend mode="normal" in="SourceGraphic" in2="effect1_dropShadow_257_300" result="shape"/>
</filter>
<linearGradient id="paint0_linear_257_300" x1="274" y1="0" x2="274" y2="548" gradientUnits="userSpaceOnUse">
<stop stop-color="white"/>
<stop offset="1" stop-color="#EEEEEE"/>
</linearGradient>
<linearGradient id="paint1_linear_257_300" x1="274" y1="0" x2="274" y2="548" gradientUnits="userSpaceOnUse">
<stop stop-color="#2D2D2D"/>
<stop offset="1"/>
</linearGradient>
<linearGradient id="paint2_linear_257_300" x1="274" y1="94" x2="274" y2="454" gradientUnits="userSpaceOnUse">
<stop stop-color="#4EF8C2"/>
<stop offset="1" stop-color="#00DFFF"/>
</linearGradient>
<clipPath id="clip0_257_300">
<rect width="548" height="548" rx="137" fill="white"/>
</clipPath>
</defs>
</svg>
